#!OML:ASF G:\JayActor3\Patient Classification 1\Patient 1\Session 6\male.ASF
:FULLY-SPECIFIED
:DEGREES
1851
root -13.2309 16.9329 4.93316 182.793 -51.6735 -167.148
lowerback 12.5003 -4.81656 -5.7505
upperback -1.04751 -7.31455 -0.20281
thorax -7.41988 -3.3395 4.32432
lowerneck 9.49272 4.10754 1.96504
upperneck -19.8929 5.76969 1.02491
head -7.66064 2.29731 -0.499168
rclavicle -2.0276e-013 -1.59028e-014
rhumerus -49.4727 -17.9265 -76.8416
rradius 18.8081
rwrist 16.6711
rhand 0.997706 -1.42774
rfingers 7.12502
rthumb 26.5457 -29.5877
lclavicle -2.0276e-013 -1.59028e-014
lhumerus -17.6682 -10.2129 81.7153
lradius 45.4772
lwrist 39.3562
lhand -21.1119 5.78443
lfingers 7.12502
lthumb 5.26632 35.699
rfemur -34.3602 4.30844 18.9725
rtibia 35.2399
rfoot -19.2567 -9.90307
rtoes -14.6959
lfemur -10.0483 11.1846 -13.5727
ltibia 14.3847
lfoot -13.1549 -6.20964
ltoes 11.4297
1852
root -13.2296 16.9257 4.90764 183.367 -52.4599 -167.682
lowerback 12.634 -4.88769 -5.58922
upperback -0.753093 -7.38655 -0.249891
thorax -7.1963 -3.3991 4.19321
lowerneck 10.1309 4.05975 1.9103
upperneck -20.2409 5.71552 0.936086
head -7.88976 2.27377 -0.533827
rclavicle 5.12864e-014 -4.77083e-015
rhumerus -50.0034 -18.0682 -77.3922
rradius 18.3121
rwrist 17.0222
rhand 2.11334 -1.44352
rfingers 7.12502
rthumb 27.613 -29.4374
lclavicle 5.12864e-014 -4.77083e-015
lhumerus -17.5386 -10.1644 81.7784
lradius 45.9734
lwrist 39.5696
lhand -21.0418 5.63428
lfingers 7.12502
lthumb 5.33397 35.5472
rfemur -34.6081 4.05906 18.7381
rtibia 34.6827
rfoot -19.698 -10.1412
rtoes -14.4082
lfemur -10.2664 11.7093 -13.9557
ltibia 14.2539
lfoot -12.7912 -7.49272
ltoes 11.89
1853
root -13.2313 16.9179 4.88089 183.97 -53.2318 -168.247
lowerback 12.7418 -4.96135 -5.42136
upperback -0.473216 -7.45956 -0.284057
thorax -6.97383 -3.45843 4.07049
lowerneck 10.7722 4.01688 1.86351
upperneck -20.4997 5.66442 0.814335
head -8.08969 2.25966 -0.580137
rclavicle 6.2816e-014 -3.18055e-015
rhumerus -50.4326 -17.8775 -78.1634
rradius 17.9193
rwrist 17.4397
rhand 3.47782 -1.3766
rfingers 7.12502
rthumb 28.917 -29.1546
lclavicle 6.2816e-014 -3.18055e-015
lhumerus -17.474 -10.0497 81.8765
lradius 46.4041
lwrist 39.7218
lhand -20.9737 5.47299
lfingers 7.12502
lthumb 5.39977 35.3842
rfemur -34.8297 3.77773 18.4978
rtibia 34.214
rfoot -20.0003 -10.4388
rtoes -13.9105
lfemur -10.4146 12.2907 -14.3527
ltibia 14.0378
lfoot -12.4004 -8.81572
ltoes 12.3444
1854
root -13.2379 16.9094 4.85283 184.628 -53.9778 -168.891
lowerback 12.8183 -5.0355 -5.25704
upperback -0.19669 -7.53348 -0.324447
thorax -6.73877 -3.51841 3.94017
lowerneck 11.3946 3.97492 1.8255
upperneck -20.6714 5.61249 0.67727
head -8.25724 2.25074 -0.631626
rclavicle -1.62208e-013 3.18055e-015
rhumerus -50.7555 -17.3991 -79.1374
rradius 17.6354
rwrist 17.9339
rhand 5.12275 -1.23486
rfingers 7.12502
rthumb 30.487 -28.7328
lclavicle -1.62208e-013 3.18055e-015
lhumerus -17.4607 -9.85889 81.9962
lradius 46.761
lwrist 39.8136
lhand -20.887 5.32269
lfingers 7.12502
lthumb 5.48348 35.2317
rfemur -35.0018 3.40645 18.2375
rtibia 33.838
rfoot -20.1107 -10.7617
rtoes -13.2118
lfemur -10.4697 12.9866 -14.7968
ltibia 13.7535
lfoot -11.9974 -10.2331
ltoes 12.7649
1855
root -13.248 16.8999 4.824 185.347 -54.6859 -169.609
lowerback 12.8803 -5.10579 -5.10322
upperback 0.0670133 -7.60442 -0.36548
thorax -6.50957 -3.57564 3.81376
lowerneck 11.9669 3.92987 1.79198
upperneck -20.7429 5.553 0.531756
head -8.38214 2.24358 -0.683662
rclavicle -1.17681e-013 -1.06549e-013
rhumerus -50.9844 -16.6667 -80.2744
rradius 17.4667
rwrist 18.4952
rhand 7.04386 -1.05082
rfingers 7.12502
rthumb 32.3174 -28.1926
lclavicle -1.17681e-013 -1.06549e-013
lhumerus -17.5004 -9.61244 82.1357
lradius 47.0381
lwrist 39.8663
lhand -20.7878 5.17624
lfingers 7.12502
lthumb 5.57927 35.0828
rfemur -35.1415 2.9742 17.9625
rtibia 33.5571
rfoot -20.015 -11.1513
rtoes -12.2944
lfemur -10.4558 13.7678 -15.2793
ltibia 13.4073
lfoot -11.5816 -11.7024
ltoes 13.15
1856
root -13.2581 16.8895 4.79515 186.122 -55.3424 -170.366
lowerback 12.9145 -5.16054 -4.94533
upperback 0.328035 -7.65362 -0.407369
thorax -6.27135 -3.62233 3.67796
lowerneck 12.452 3.87449 1.76226
upperneck -20.7324 5.4779 0.401756
head -8.46426 2.23027 -0.7264
rclavicle -2.12302e-013 7.4743e-014
rhumerus -51.1147 -15.7994 -81.4873
rradius 17.4074
rwrist 19.085
rhand 9.29567 -0.779725
rfingers 7.12502
rthumb 34.458 -27.4606
lclavicle -2.12302e-013 7.4743e-014
lhumerus -17.547 -9.32962 82.2802
lradius 47.2289
lwrist 39.8781
lhand -20.6638 5.04389
lfingers 7.12502
lthumb 5.69897 34.9473
rfemur -35.2833 2.54831 17.6876
rtibia 33.3627
rfoot -19.7174 -11.6787
rtoes -10.9728
lfemur -10.4365 14.5144 -15.7704
ltibia 13.0363
lfoot -11.1728 -13.1009
ltoes 13.5293
1857
root -13.2677 16.8783 4.76617 186.957 -55.9478 -171.158
lowerback 12.931 -5.19763 -4.79498
upperback 0.579111 -7.68027 -0.443457
thorax -6.03493 -3.65686 3.54753
lowerneck 12.8516 3.80275 1.73254
upperneck -20.6605 5.37769 0.286355
head -8.5108 2.20553 -0.758587
rclavicle 5.32743e-014 8.42847e-014
rhumerus -51.1654 -14.7946 -82.7643
rradius 17.4758
rwrist 19.6139
rhand 11.7744 -0.540817
rfingers 7.12502
rthumb 36.8073 -26.6549
lclavicle 5.32743e-014 8.42847e-014
lhumerus -17.6123 -9.02783 82.4309
lradius 47.3421
lwrist 39.8597
lhand -20.5036 4.92355
lfingers 7.12502
lthumb 5.8536 34.8227
rfemur -35.4276 2.14712 17.4124
rtibia 33.2447
rfoot -19.2459 -12.3601
rtoes -9.18409
lfemur -10.4321 15.1752 -16.266
ltibia 12.6576
lfoot -10.7792 -14.3821
ltoes 13.9108
1858
root -13.2718 16.8665 4.73755 187.857 -56.499 -171.951
lowerback 12.9582 -5.21145 -4.674
upperback 0.794579 -7.68063 -0.455729
thorax -5.83808 -3.67434 3.45745
lowerneck 13.1869 3.71606 1.70808
upperneck -20.5596 5.25561 0.18246
head -8.53623 2.16934 -0.783241
rclavicle -2.38542e-014 -4.92986e-014
rhumerus -51.1679 -13.7319 -84.0062
rradius 17.6551
rwrist 20.0509
rhand 14.4288 -0.33096
rfingers 7.12502
rthumb 39.3137 -25.7604
lclavicle -2.38542e-014 -4.92986e-014
lhumerus -17.7066 -8.6545 82.5964
lradius 47.3809
lwrist 39.7576
lhand -20.2931 4.81838
lfingers 7.12502
lthumb 6.05686 34.7118
rfemur -35.6234 1.92663 17.1163
rtibia 33.1819
rfoot -18.745 -13.2262
rtoes -6.73429
lfemur -10.5595 15.6907 -16.7441
ltibia 12.2774
lfoot -10.2283 -15.5307
ltoes 14.7954
1859
root -13.2762 16.8546 4.7075 188.78 -56.99 -172.772
lowerback 12.9999 -5.20494 -4.58203
upperback 0.994432 -7.6593 -0.456901
thorax -5.66266 -3.6788 3.39404
lowerneck 13.4769 3.61719 1.6934
upperneck -20.4513 5.11554 0.0810118
head -8.55093 2.12331 -0.805237
rclavicle 9.06458e-014 -6.67916e-014
rhumerus -51.148 -12.5971 -85.2039
rradius 17.9404
rwrist 20.2983
rhand 17.0687 -0.278068
rfingers 7.12502
rthumb 41.7952 -24.9364
lclavicle 9.06458e-014 -6.67916e-014
lhumerus -17.8578 -8.19217 82.7789
lradius 47.3517
lwrist 39.5627
lhand -20.023 4.72963
lfingers 7.12502
lthumb 6.3176 34.6154
rfemur -35.777 1.83573 16.7813
rtibia 33.1562
rfoot -18.1921 -14.2086
rtoes -3.71354
lfemur -10.6403 16.0599 -17.214
ltibia 11.8629
lfoot -9.71304 -16.4744
ltoes 15.5316
1860
root -13.2809 16.844 4.67566 189.715 -57.4247 -173.606
lowerback 13.0616 -5.18124 -4.51947
upperback 1.1747 -7.62063 -0.446582
thorax -5.51524 -3.67216 3.35947
lowerneck 13.7523 3.50993 1.68831
upperneck -20.3742 4.96444 -0.0144984
head -8.57372 2.06903 -0.825311
rclavicle -2.22639e-014 1.74931e-014
rhumerus -51.1218 -11.4556 -86.2906
rradius 18.2898
rwrist 20.3744
rhand 19.5172 -0.366333
rfingers 7.12502
rthumb 44.085 -24.2174
lclavicle -2.22639e-014 1.74931e-014
lhumerus -18.0759 -7.62553 82.9696
lradius 47.2567
lwrist 39.2616
lhand -19.7008 4.64887
lfingers 7.12502
lthumb 6.62864 34.5251
rfemur -35.9031 1.94131 16.3823
rtibia 33.1446
rfoot -17.7331 -15.2607
rtoes -0.430904
lfemur -10.6604 16.2767 -17.6667
ltibia 11.3792
lfoot -9.21476 -17.1999
ltoes 16.101
1861
root -13.2871 16.8363 4.64161 190.633 -57.8054 -174.435
lowerback 13.1438 -5.14238 -4.46963
upperback 1.33801 -7.56497 -0.428253
thorax -5.39585 -3.65524 3.34097
lowerneck 14.0214 3.39865 1.70205
upperneck -20.3358 4.81009 -0.108551
head -8.60824 2.0098 -0.847614
rclavicle -6.36111e-015 -1.27222e-014
rhumerus -51.0946 -10.3602 -87.2232
rradius 18.6548
rwrist 20.3292
rhand 21.5504 -0.572671
rfingers 7.12502
rthumb 45.9765 -23.677
lclavicle -6.36111e-015 -1.27222e-014
lhumerus -18.3665 -6.94819 83.1622
lradius 47.0889
lwrist 38.8481
lhand -19.3359 4.58044
lfingers 7.12502
lthumb 6.98095 34.4453
rfemur -35.9982 2.2525 15.9151
rtibia 33.1343
rfoot -17.4576 -16.3217
rtoes 2.78649
lfemur -10.5677 16.3759 -18.0907
ltibia 10.7599
lfoot -8.69446 -17.7313
ltoes 16.5053
1862
root -13.2956 16.8319 4.60571 191.496 -58.1166 -175.225
lowerback 13.2529 -5.08602 -4.41431
upperback 1.48719 -7.4871 -0.40623
thorax -5.3082 -3.62591 3.32384
lowerneck 14.2832 3.29035 1.72258
upperneck -20.336 4.66333 -0.184261
head -8.65498 1.94995 -0.865712
rclavicle 6.12257e-014 -3.65764e-014
rhumerus -51.055 -9.36942 -87.9554
rradius 18.9812
rwrist 20.2179
rhand 23.0319 -0.834807
rfingers 7.12502
rthumb 47.3484 -23.346
lclavicle 6.12257e-014 -3.65764e-014
lhumerus -18.7274 -6.15337 83.3415
lradius 46.8405
lwrist 38.3224
lhand -18.9374 4.54381
lfingers 7.12502
lthumb 7.36558 34.3956
rfemur -36.0638 2.73419 15.4046
rtibia 33.1082
rfoot -17.3953 -17.3333
rtoes 5.55003
lfemur -10.3585 16.3578 -18.4683
ltibia 10.0285
lfoot -8.18508 -18.0493
ltoes 16.7173
1863
root -13.3047 16.8323 4.5688 192.306 -58.3799 -175.938
lowerback 13.3735 -5.02305 -4.32889
upperback 1.61332 -7.39634 -0.375325
thorax -5.25487 -3.58875 3.30027
lowerneck 14.5192 3.18848 1.7544
upperneck -20.3579 4.52844 -0.247699
head -8.70454 1.89237 -0.882299
rclavicle -1.11319e-014 -4.92986e-014
rhumerus -50.9726 -8.51177 -88.4709
rradius 19.2261
rwrist 20.0752
rhand 23.8852 -1.14605
rfingers 7.12502
rthumb 48.1357 -23.2953
lclavicle -1.11319e-014 -4.92986e-014
lhumerus -19.1525 -5.27799 83.4895
lradius 46.4962
lwrist 37.716
lhand -18.5316 4.53186
lfingers 7.12502
lthumb 7.75728 34.3696
rfemur -36.1412 3.29816 14.8961
rtibia 33.0638
rfoot -17.5334 -18.2489
rtoes 7.5877
lfemur -10.0611 15.48 -18.6532
ltibia 9.21612
lfoot -7.94814 -17.4536
ltoes 16.6897
1864
root -13.3083 16.8371 4.53288 193.021 -58.5686 -176.457
lowerback 13.5164 -4.94229 -4.19106
upperback 1.69172 -7.27312 -0.314362
thorax -5.2691 -3.5323 3.2796
lowerneck 14.7101 3.1002 1.79077
upperneck -20.3824 4.41545 -0.290246
head -8.74718 1.84193 -0.893962
rclavicle 1.68569e-013 3.81667e-014
rhumerus -50.814 -7.81899 -88.7404
rradius 19.3442
rwrist 19.9584
rhand 24.1271 -1.37727
rfingers 7.12502
rthumb 48.3585 -23.4211
lclavicle 1.68569e-013 3.81667e-014
lhumerus -19.63 -4.33903 83.598
lradius 46.0528
lwrist 37.0825
lhand -18.2173 4.56849
lfingers 7.12502
lthumb 8.06066 34.3948
rfemur -36.3272 3.99944 14.4486
rtibia 32.9979
rfoot -17.8586 -19.0964
rtoes 9.04803
lfemur -9.86786 14.6901 -18.7908
ltibia 8.41498
lfoot -7.74502 -16.7903
ltoes 16.2716
